<mxfile host="app.diagrams.net" agent="Mozilla/5.0 (Windows NT 10.0; Win64; x64) AppleWebKit/537.36 (KHTML, like Gecko) Chrome/130.0.0.0 Safari/537.36" version="24.8.4">
  <diagram name="Page-1" id="AmSja63dXRdY-rwInjOv">
    <mxGraphModel dx="1120" dy="468" grid="1" gridSize="10" guides="1" tooltips="1" connect="1" arrows="1" fold="1" page="1" pageScale="1" pageWidth="850" pageHeight="1100" math="0" shadow="0">
      <root>
        <mxCell id="0" />
        <mxCell id="1" parent="0" />
        <mxCell id="HnnXppO3-Dk9SYgD6SL0-1" value="" style="shape=image;html=1;verticalAlign=top;verticalLabelPosition=bottom;labelBackgroundColor=#ffffff;imageAspect=0;aspect=fixed;image=https://cdn2.iconfinder.com/data/icons/woothemes/PNG/intruder.png" vertex="1" parent="1">
          <mxGeometry x="60" y="40" width="80" height="80" as="geometry" />
        </mxCell>
        <mxCell id="HnnXppO3-Dk9SYgD6SL0-2" value="" style="sketch=0;aspect=fixed;pointerEvents=1;shadow=0;dashed=0;html=1;strokeColor=none;labelPosition=center;verticalLabelPosition=bottom;verticalAlign=top;align=center;fillColor=#00188D;shape=mxgraph.mscae.enterprise.client_application" vertex="1" parent="1">
          <mxGeometry x="270" y="40" width="109.39" height="70" as="geometry" />
        </mxCell>
        <mxCell id="HnnXppO3-Dk9SYgD6SL0-3" value="" style="image;html=1;image=img/lib/clip_art/general/Lock_128x128.png" vertex="1" parent="1">
          <mxGeometry x="520" y="60" width="60" height="70" as="geometry" />
        </mxCell>
        <mxCell id="HnnXppO3-Dk9SYgD6SL0-4" value="" style="sketch=0;aspect=fixed;pointerEvents=1;shadow=0;dashed=0;html=1;strokeColor=none;labelPosition=center;verticalLabelPosition=bottom;verticalAlign=top;align=center;fillColor=#00188D;shape=mxgraph.mscae.enterprise.document" vertex="1" parent="1">
          <mxGeometry x="540" y="20" width="60" height="75" as="geometry" />
        </mxCell>
        <mxCell id="HnnXppO3-Dk9SYgD6SL0-5" value="&lt;b&gt;Attacker&lt;/b&gt;" style="text;html=1;align=center;verticalAlign=middle;whiteSpace=wrap;rounded=0;" vertex="1" parent="1">
          <mxGeometry x="50" y="110" width="60" height="30" as="geometry" />
        </mxCell>
        <mxCell id="HnnXppO3-Dk9SYgD6SL0-7" value="&lt;b&gt;Vulnerable Client&lt;/b&gt;" style="text;html=1;align=center;verticalAlign=middle;whiteSpace=wrap;rounded=0;" vertex="1" parent="1">
          <mxGeometry x="269.39" y="110" width="110" height="30" as="geometry" />
        </mxCell>
        <mxCell id="HnnXppO3-Dk9SYgD6SL0-8" value="&lt;b&gt;Vulnerable Protected resource&lt;/b&gt;" style="text;html=1;align=center;verticalAlign=middle;whiteSpace=wrap;rounded=0;" vertex="1" parent="1">
          <mxGeometry x="580" y="110" width="70" height="30" as="geometry" />
        </mxCell>
        <mxCell id="HnnXppO3-Dk9SYgD6SL0-9" value="" style="endArrow=none;html=1;rounded=0;entryX=1;entryY=0.75;entryDx=0;entryDy=0;" edge="1" parent="1" target="HnnXppO3-Dk9SYgD6SL0-5">
          <mxGeometry width="50" height="50" relative="1" as="geometry">
            <mxPoint x="110" y="360" as="sourcePoint" />
            <mxPoint x="450" y="220" as="targetPoint" />
          </mxGeometry>
        </mxCell>
        <mxCell id="HnnXppO3-Dk9SYgD6SL0-10" value="" style="endArrow=none;dashed=1;html=1;dashPattern=1 3;strokeWidth=2;rounded=0;" edge="1" parent="1">
          <mxGeometry width="50" height="50" relative="1" as="geometry">
            <mxPoint x="90" y="360" as="sourcePoint" />
            <mxPoint x="140" y="360" as="targetPoint" />
          </mxGeometry>
        </mxCell>
        <mxCell id="HnnXppO3-Dk9SYgD6SL0-11" value="" style="endArrow=none;html=1;rounded=0;entryX=0.75;entryY=1;entryDx=0;entryDy=0;" edge="1" parent="1" target="HnnXppO3-Dk9SYgD6SL0-7">
          <mxGeometry width="50" height="50" relative="1" as="geometry">
            <mxPoint x="352" y="360" as="sourcePoint" />
            <mxPoint x="450" y="220" as="targetPoint" />
          </mxGeometry>
        </mxCell>
        <mxCell id="HnnXppO3-Dk9SYgD6SL0-12" value="" style="endArrow=none;dashed=1;html=1;dashPattern=1 3;strokeWidth=2;rounded=0;" edge="1" parent="1">
          <mxGeometry width="50" height="50" relative="1" as="geometry">
            <mxPoint x="330" y="360" as="sourcePoint" />
            <mxPoint x="380" y="360" as="targetPoint" />
          </mxGeometry>
        </mxCell>
        <mxCell id="HnnXppO3-Dk9SYgD6SL0-13" value="" style="endArrow=none;html=1;rounded=0;entryX=0.883;entryY=0.957;entryDx=0;entryDy=0;entryPerimeter=0;" edge="1" parent="1" target="HnnXppO3-Dk9SYgD6SL0-3">
          <mxGeometry width="50" height="50" relative="1" as="geometry">
            <mxPoint x="570" y="360" as="sourcePoint" />
            <mxPoint x="450" y="220" as="targetPoint" />
          </mxGeometry>
        </mxCell>
        <mxCell id="HnnXppO3-Dk9SYgD6SL0-14" value="" style="endArrow=none;dashed=1;html=1;dashPattern=1 3;strokeWidth=2;rounded=0;" edge="1" parent="1">
          <mxGeometry width="50" height="50" relative="1" as="geometry">
            <mxPoint x="540" y="360" as="sourcePoint" />
            <mxPoint x="600" y="360" as="targetPoint" />
          </mxGeometry>
        </mxCell>
        <mxCell id="HnnXppO3-Dk9SYgD6SL0-15" value="" style="endArrow=classic;html=1;rounded=0;" edge="1" parent="1">
          <mxGeometry width="50" height="50" relative="1" as="geometry">
            <mxPoint x="350" y="200" as="sourcePoint" />
            <mxPoint x="570" y="200" as="targetPoint" />
          </mxGeometry>
        </mxCell>
        <mxCell id="HnnXppO3-Dk9SYgD6SL0-16" value="" style="endArrow=classic;html=1;rounded=0;" edge="1" parent="1">
          <mxGeometry width="50" height="50" relative="1" as="geometry">
            <mxPoint x="570" y="310" as="sourcePoint" />
            <mxPoint x="350" y="310" as="targetPoint" />
          </mxGeometry>
        </mxCell>
        <mxCell id="HnnXppO3-Dk9SYgD6SL0-17" value="" style="endArrow=classic;html=1;rounded=0;" edge="1" parent="1">
          <mxGeometry width="50" height="50" relative="1" as="geometry">
            <mxPoint x="350" y="340" as="sourcePoint" />
            <mxPoint x="110" y="340" as="targetPoint" />
          </mxGeometry>
        </mxCell>
        <mxCell id="HnnXppO3-Dk9SYgD6SL0-18" value="&lt;b&gt;Hijacking of access token through the query parameter&lt;/b&gt;" style="text;html=1;align=center;verticalAlign=middle;whiteSpace=wrap;rounded=0;" vertex="1" parent="1">
          <mxGeometry x="100" y="390" width="460" height="30" as="geometry" />
        </mxCell>
        <mxCell id="HnnXppO3-Dk9SYgD6SL0-19" value="&lt;b&gt;Client access a protected resource with the access token in the URL&lt;/b&gt;" style="text;html=1;align=left;verticalAlign=middle;whiteSpace=wrap;rounded=0;" vertex="1" parent="1">
          <mxGeometry x="379.39" y="160" width="160.61" height="30" as="geometry" />
        </mxCell>
        <mxCell id="HnnXppO3-Dk9SYgD6SL0-20" value="&lt;b&gt;Protected resource returns an entity, causing the client to fetch a resource on the attacker&#39;s server, through redirect or embedded items&lt;/b&gt;" style="text;html=1;align=left;verticalAlign=middle;whiteSpace=wrap;rounded=0;" vertex="1" parent="1">
          <mxGeometry x="360" y="260" width="210" height="30" as="geometry" />
        </mxCell>
        <mxCell id="HnnXppO3-Dk9SYgD6SL0-21" value="&lt;b&gt;Client follows redirect or fetches item, placing the protected resource URL(including the access token) in the &lt;i&gt;&lt;font face=&quot;Comic Sans MS&quot;&gt;Referer &lt;/font&gt;&lt;/i&gt;header&lt;/b&gt;" style="text;html=1;align=left;verticalAlign=middle;whiteSpace=wrap;rounded=0;" vertex="1" parent="1">
          <mxGeometry x="120" y="290" width="220" height="30" as="geometry" />
        </mxCell>
      </root>
    </mxGraphModel>
  </diagram>
</mxfile>
